<svg width="122" height="24" viewBox="0 0 122 24" fill="none" xmlns="http://www.w3.org/2000/svg">
<g id="LOGO MASTER FILE &#226;&#128;&#147; BE CAREFUL!">
<path id="Vector" d="M7.93889 10.205C7.66491 8.71959 6.97673 7.89246 5.73844 7.89246C4.74176 7.89246 4.05358 8.40996 4.05358 9.37568C4.05358 12.2772 11.2762 13.4507 11.2762 18.9722C11.2762 22.2894 9.0046 23.9783 5.88297 23.9783C2.5111 23.9783 0.58463 22.0447 0 18.8012L3.37187 17.8679C3.61133 19.4226 4.16144 20.804 5.91533 20.804C6.91417 20.804 7.64118 20.2151 7.64118 19.1801C7.64118 15.969 0.41636 14.7607 0.41636 9.68748C0.41636 6.75135 2.688 4.70732 5.57664 4.70732C8.59687 4.70732 10.6334 6.74269 11.218 9.64417L7.93889 10.205Z" fill="var(--fill-0, #F3F5F7)"/>
<path id="Vector_2" d="M12.7907 8.22808V5.06027H14.9221V0.0541321H18.7729V5.06027H21.3617V8.22808H18.7729V18.9289C18.7729 19.8968 19.1849 20.4446 20.0802 20.4446H21.3617V23.7597C20.7333 23.925 20.0844 23.9979 19.4352 23.9762C16.5444 23.9762 14.9286 22.6315 14.9286 19.7994V8.22808H12.7907Z" fill="var(--fill-0, #F3F5F7)"/>
<path id="Vector_3" d="M23.4521 10.5146C23.657 6.75135 26.0409 4.71599 29.6436 4.71599C33.2204 4.71599 35.2526 6.37243 35.2526 9.7546V21.6637C35.2841 22.3249 35.3648 22.9828 35.4942 23.6319H31.8116C31.775 23.1144 31.6391 22.6315 31.5959 22.1812C30.1505 23.3547 28.9467 23.9762 27.0893 23.9762C24.4746 23.9762 23.1695 22.1812 23.1695 19.7993C23.1695 15.7243 25.851 13.4811 31.3888 11.3764V10.2721C31.3888 8.71743 30.7697 7.89029 29.4969 7.89029C27.743 7.89029 27.3654 8.92313 27.2964 10.5125L23.4521 10.5146ZM31.3974 14.2086C27.8897 16.2115 27.0289 17.489 27.0289 19.1108C27.0289 20.3212 27.648 20.804 28.8173 20.804C29.8852 20.804 30.7438 20.0094 31.4061 19.0718L31.3974 14.2086Z" fill="var(--fill-0, #F3F5F7)"/>
<path id="Vector_4" d="M37.6213 8.22808V5.06027H39.7548V0.0541321H43.6078V5.06027H46.1966V8.22808H43.6078V18.9289C43.6078 19.8968 44.0198 20.4446 44.9151 20.4446H46.1879V23.7597C45.5596 23.9251 44.9107 23.9981 44.2615 23.9762C41.3728 23.9762 39.7548 22.6315 39.7548 19.7994V8.22808H37.6213Z" fill="var(--fill-0, #F3F5F7)"/>
<path id="Vector_5" d="M48.7314 3.52725V0H52.5843V3.52725H48.7314ZM48.7314 23.6341V5.06027H52.5843V23.6341H48.7314Z" fill="var(--fill-0, #F3F5F7)"/>
<path id="Vector_6" d="M63.3515 10.205C63.0754 8.71959 62.3872 7.89246 61.1489 7.89246C60.1522 7.89246 59.464 8.40996 59.464 9.37568C59.464 12.2772 66.6867 13.4507 66.6867 18.9722C66.6867 22.2894 64.4172 23.9783 61.2934 23.9783C57.9215 23.9783 55.9972 22.0447 55.4104 18.8012L58.7823 17.8679C59.0239 19.4226 59.574 20.804 61.3279 20.804C62.3246 20.804 63.0538 20.2151 63.0538 19.1801C63.0538 15.969 55.8311 14.7607 55.8311 9.68748C55.8311 6.75135 58.1006 4.70732 60.9914 4.70732C64.0116 4.70732 66.046 6.74269 66.6306 9.64417L63.3515 10.205Z" fill="var(--fill-0, #F3F5F7)"/>
<path id="Vector_7" d="M68.2011 8.22808V5.06027H70.3325V0.0541321H74.1854V5.06027H76.7742V8.22808H74.1854V18.9289C74.1854 19.8968 74.5975 20.4446 75.4928 20.4446H76.7656V23.7597C76.1372 23.9251 75.4883 23.9981 74.8391 23.9762C71.9505 23.9762 70.3325 22.6315 70.3325 19.7994V8.22808H68.2011Z" fill="var(--fill-0, #F3F5F7)"/>
<path id="Vector_8" d="M78.8625 10.5146C79.0782 6.75135 81.4513 4.71599 85.054 4.71599C88.6308 4.71599 90.663 6.37243 90.663 9.7546V21.6637C90.6945 22.3249 90.7752 22.9828 90.9046 23.6319H87.2221C87.1875 23.1144 87.0495 22.6315 87.0063 22.1812C85.5609 23.3547 84.3572 23.9762 82.4997 23.9762C79.8872 23.9762 78.5799 22.1812 78.5799 19.7993C78.5799 15.7243 81.2614 13.4811 86.7992 11.3764V10.2721C86.7992 8.71743 86.1801 7.89029 84.9073 7.89029C83.1534 7.89029 82.7759 8.92313 82.7068 10.5125L78.8625 10.5146ZM86.8079 14.2086C83.3001 16.2115 82.4393 17.489 82.4393 19.1108C82.4393 20.3212 83.0585 20.804 84.2277 20.804C85.2956 20.804 86.1563 20.0094 86.8165 19.0718L86.8079 14.2086Z" fill="var(--fill-0, #F3F5F7)"/>
<path id="Vector_9" d="M121.165 0.0324779H98.9772C98.7565 0.032475 98.5448 0.120164 98.3884 0.276378C98.2319 0.432591 98.1435 0.644621 98.1423 0.866112V16.0447C98.1825 16.0414 98.2229 16.0414 98.2631 16.0447C98.2631 16.0447 101.855 15.9733 103.4 15.1678C105.302 14.1739 106.72 12.1213 106.72 12.1213C107.08 11.5994 107.477 11.0235 107.604 10.8416C107.732 10.6597 107.859 10.4778 107.891 10.4367C107.924 10.3955 108.072 10.1833 108.161 10.0577C108.249 9.93215 108.614 9.40815 108.974 8.87983C108.974 8.87983 111.131 5.74449 114.206 4.14435C117.532 2.41212 121.931 2.6005 121.931 2.6005H122V0.866112C121.999 0.644621 121.91 0.432591 121.754 0.276378C121.597 0.120164 121.386 0.032475 121.165 0.0324779ZM116.635 8.85168C114.743 9.84338 113.328 11.9091 113.328 11.9091L112.443 13.1887C112.318 13.3685 112.189 13.5525 112.156 13.5936C112.124 13.6348 111.973 13.8448 111.887 13.9704C111.8 14.096 111.436 14.62 111.073 15.1505C111.073 15.1505 108.916 18.2858 105.84 19.886C102.653 21.5489 98.4832 21.4406 98.1423 21.4298V23.162C98.1423 23.3843 98.2303 23.5974 98.3869 23.7546C98.5434 23.9117 98.7558 24 98.9772 24H121.165C121.387 24 121.599 23.9117 121.755 23.7546C121.912 23.5974 122 23.3843 122 23.162V7.94875C121.929 7.96405 121.857 7.97275 121.784 7.97474C121.784 7.97474 118.192 8.04619 116.646 8.85168H116.635Z" fill="var(--fill-0, #F3F5F7)"/>
</g>
</svg>
