<svg viewBox="0 0 122 24" width="122" height="24" xmlns="http://www.w3.org/2000/svg">
  <g>
    <path transform="matrix(1 0 0 1 0 4.707)" d="M7.939 5.498C7.665 4.012 6.977 3.185 5.738 3.185C4.742 3.185 4.054 3.703 4.054 4.668C4.054 7.570 11.276 8.743 11.276 14.265C11.276 17.582 9.005 19.271 5.883 19.271C2.511 19.271 0.585 17.337 0.000 14.094L3.372 13.161C3.611 14.715 4.161 16.097 5.915 16.097C6.914 16.097 7.641 15.508 7.641 14.473C7.641 11.262 0.416 10.053 0.416 4.980C0.416 2.044 2.688 0.000 5.577 0.000C8.597 0.000 10.633 2.035 11.218 4.937L7.939 5.498Z" fill="#FFFFFF" />
    <path transform="matrix(1 0 0 1 12.791 0.054)" d="M0.000 8.174L0.000 5.006L2.131 5.006L2.131 0.000L5.982 0.000L5.982 5.006L8.571 5.006L8.571 8.174L5.982 8.174L5.982 18.875C5.982 19.843 6.394 20.390 7.290 20.390L8.571 20.390L8.571 23.706C7.943 23.871 7.294 23.944 6.645 23.922C3.754 23.922 2.138 22.577 2.138 19.745L2.138 8.174L0.000 8.174Z" fill="#FFFFFF" />
    <path transform="matrix(1 0 0 1 23.169 4.716)" d="M0.283 5.799C0.488 2.035 2.871 0.000 6.474 0.000C10.051 0.000 12.083 1.656 12.083 5.039L12.083 16.948C12.115 17.609 12.195 18.267 12.325 18.916L8.642 18.916C8.605 18.398 8.470 17.916 8.426 17.465C6.981 18.639 5.777 19.260 3.920 19.260C1.305 19.260 0.000 17.465 0.000 15.083C0.000 11.008 2.682 8.765 8.219 6.660L8.219 5.556C8.219 4.001 7.600 3.174 6.327 3.174C4.573 3.174 4.196 4.207 4.127 5.796L0.283 5.799ZM8.228 9.493C4.720 11.495 3.859 12.773 3.859 14.395C3.859 15.605 4.479 16.088 5.648 16.088C6.716 16.088 7.574 15.293 8.237 14.356L8.228 9.493Z" fill="#FFFFFF" />
    <path transform="matrix(1 0 0 1 37.621 0.054)" d="M0.000 8.174L0.000 5.006L2.134 5.006L2.134 0.000L5.987 0.000L5.987 5.006L8.575 5.006L8.575 8.174L5.987 8.174L5.987 18.875C5.987 19.843 6.399 20.390 7.294 20.390L8.567 20.390L8.567 23.706C7.938 23.871 7.289 23.944 6.640 23.922C3.752 23.922 2.134 22.577 2.134 19.745L2.134 8.174L0.000 8.174Z" fill="#FFFFFF" />
    <path transform="matrix(1 0 0 1 48.731 0)" d="M0.000 3.527L0.000 0.000L3.853 0.000L3.853 3.527L0.000 3.527ZM0.000 23.634L0.000 5.060L3.853 5.060L3.853 23.634L0.000 23.634Z" fill="#FFFFFF" />
    <path transform="matrix(1 0 0 1 55.41 4.707)" d="M7.941 5.498C7.665 4.012 6.977 3.185 5.738 3.185C4.742 3.185 4.054 3.703 4.054 4.668C4.054 7.570 11.276 8.743 11.276 14.265C11.276 17.582 9.007 19.271 5.883 19.271C2.511 19.271 0.587 17.337 0.000 14.094L3.372 13.161C3.613 14.715 4.164 16.097 5.917 16.097C6.914 16.097 7.643 15.508 7.643 14.473C7.643 11.262 0.421 10.053 0.421 4.980C0.421 2.044 2.690 0.000 5.581 0.000C8.601 0.000 10.636 2.035 11.220 4.937L7.941 5.498Z" fill="#FFFFFF" />
    <path transform="matrix(1 0 0 1 68.201 0.054)" d="M0.000 8.174L0.000 5.006L2.131 5.006L2.131 0.000L5.984 0.000L5.984 5.006L8.573 5.006L8.573 8.174L5.984 8.174L5.984 18.875C5.984 19.843 6.396 20.390 7.292 20.390L8.565 20.390L8.565 23.706C7.936 23.871 7.287 23.944 6.638 23.922C3.749 23.922 2.131 22.577 2.131 19.745L2.131 8.174L0.000 8.174Z" fill="#FFFFFF" />
    <path transform="matrix(1 0 0 1 78.58 4.716)" d="M0.283 5.799C0.498 2.035 2.871 0.000 6.474 0.000C10.051 0.000 12.083 1.656 12.083 5.039L12.083 16.948C12.115 17.609 12.195 18.267 12.325 18.916L8.642 18.916C8.608 18.398 8.470 17.916 8.426 17.465C6.981 18.639 5.777 19.260 3.920 19.260C1.307 19.260 0.000 17.465 0.000 15.083C0.000 11.008 2.682 8.765 8.219 6.660L8.219 5.556C8.219 4.001 7.600 3.174 6.327 3.174C4.573 3.174 4.196 4.207 4.127 5.796L0.283 5.799ZM8.228 9.493C4.720 11.495 3.859 12.773 3.859 14.395C3.859 15.605 4.479 16.088 5.648 16.088C6.716 16.088 7.576 15.293 8.237 14.356L8.228 9.493Z" fill="#FFFFFF" />
    <path transform="matrix(1 0 0 1 98.142 0.033)" d="M23.023 0.000L0.835 0.000C0.614 0.000 0.403 0.088 0.246 0.244C0.090 0.400 0.001 0.612 0.000 0.834L0.000 16.012C0.040 16.009 0.081 16.009 0.121 16.012C0.121 16.012 3.713 15.941 5.257 15.135C7.160 14.141 8.577 12.089 8.577 12.089C8.938 11.567 9.335 10.991 9.462 10.809C9.589 10.627 9.717 10.445 9.749 10.404C9.781 10.363 9.930 10.151 10.019 10.025C10.107 9.900 10.472 9.376 10.832 8.847C10.832 8.847 12.989 5.712 16.063 4.112C19.390 2.380 23.789 2.568 23.789 2.568L23.858 2.568L23.858 0.834C23.857 0.612 23.768 0.400 23.612 0.244C23.455 0.088 23.243 0.000 23.023 0.000ZM18.492 8.819C16.600 9.811 15.185 11.877 15.185 11.877L14.301 13.156C14.176 13.336 14.046 13.520 14.014 13.561C13.982 13.602 13.830 13.812 13.744 13.938C13.658 14.064 13.293 14.588 12.931 15.118C12.931 15.118 10.774 18.253 7.697 19.853C4.511 21.516 0.341 21.408 0.000 21.397L0.000 23.130C0.000 23.352 0.088 23.565 0.245 23.722C0.401 23.879 0.613 23.968 0.835 23.968L23.023 23.968C23.244 23.968 23.457 23.879 23.613 23.722C23.770 23.565 23.858 23.352 23.858 23.130L23.858 7.916C23.787 7.932 23.714 7.940 23.642 7.942C23.642 7.942 20.050 8.014 18.503 8.819L18.492 8.819Z" fill="#FFFFFF" />
  </g>
</svg>
