<svg layerName="Logo" viewBox="0 0 290 24" width="290" height="24" xmlns="http://www.w3.org/2000/svg" style="overflow-x: visible; overflow-y: visible; height: 24px; width: 290px; flex-shrink: 0">
  <g layerName="LOGO MASTER FILE – BE CAREFUL!">
    <path transform="matrix(1 0 0 1 0 4.707)" layerName="Vector" d="M7.939 5.498C7.665 4.012 6.977 3.185 5.738 3.185C4.742 3.185 4.054 3.703 4.054 4.668C4.054 7.570 11.276 8.743 11.276 14.265C11.276 17.582 9.005 19.271 5.883 19.271C2.511 19.271 0.585 17.337 0.000 14.094C0.000 14.094 3.372 13.161 3.372 13.161C3.611 14.715 4.161 16.097 5.915 16.097C6.914 16.097 7.641 15.508 7.641 14.473C7.641 11.262 0.416 10.053 0.416 4.980C0.416 2.044 2.688 0.000 5.577 0.000C8.597 0.000 10.633 2.035 11.218 4.937C11.218 4.937 7.939 5.498 7.939 5.498Z" fill-rule="nonzero" fill="#FFFFFF" />
    <path transform="matrix(1 0 0 1 12.791 0.054)" layerName="Vector" d="M0.000 8.174C0.000 8.174 0.000 5.006 0.000 5.006C0.000 5.006 2.131 5.006 2.131 5.006C2.131 5.006 2.131 0.000 2.131 0.000C2.131 0.000 5.982 0.000 5.982 0.000C5.982 0.000 5.982 5.006 5.982 5.006C5.982 5.006 8.571 5.006 8.571 5.006C8.571 5.006 8.571 8.174 8.571 8.174C8.571 8.174 5.982 8.174 5.982 8.174C5.982 8.174 5.982 18.875 5.982 18.875C5.982 19.843 6.394 20.390 7.290 20.390C7.290 20.390 8.571 20.390 8.571 20.390C8.571 20.390 8.571 23.706 8.571 23.706C7.943 23.871 7.294 23.944 6.645 23.922C3.754 23.922 2.138 22.577 2.138 19.745C2.138 19.745 2.138 8.174 2.138 8.174C2.138 8.174 0.000 8.174 0.000 8.174Z" fill-rule="nonzero" fill="#FFFFFF" />
    <path transform="matrix(1 0 0 1 23.169 4.716)" layerName="Vector" d="M0.283 5.799C0.488 2.035 2.871 0.000 6.474 0.000C10.051 0.000 12.083 1.656 12.083 5.039C12.083 5.039 12.083 16.948 12.083 16.948C12.115 17.609 12.195 18.267 12.325 18.916C12.325 18.916 8.642 18.916 8.642 18.916C8.605 18.398 8.470 17.916 8.426 17.465C6.981 18.639 5.777 19.260 3.920 19.260C1.305 19.260 0.000 17.465 0.000 15.083C0.000 11.008 2.682 8.765 8.219 6.660C8.219 6.660 8.219 5.556 8.219 5.556C8.219 4.001 7.600 3.174 6.327 3.174C4.573 3.174 4.196 4.207 4.127 5.796C4.127 5.796 0.283 5.799 0.283 5.799ZM8.228 9.493C4.720 11.495 3.859 12.773 3.859 14.395C3.859 15.605 4.479 16.088 5.648 16.088C6.716 16.088 7.574 15.293 8.237 14.356C8.237 14.356 8.228 9.493 8.228 9.493Z" fill-rule="nonzero" fill="#FFFFFF" />
    <path transform="matrix(1 0 0 1 37.621 0.054)" layerName="Vector" d="M0.000 8.174C0.000 8.174 0.000 5.006 0.000 5.006C0.000 5.006 2.134 5.006 2.134 5.006C2.134 5.006 2.134 0.000 2.134 0.000C2.134 0.000 5.987 0.000 5.987 0.000C5.987 0.000 5.987 5.006 5.987 5.006C5.987 5.006 8.575 5.006 8.575 5.006C8.575 5.006 8.575 8.174 8.575 8.174C8.575 8.174 5.987 8.174 5.987 8.174C5.987 8.174 5.987 18.875 5.987 18.875C5.987 19.843 6.399 20.390 7.294 20.390C7.294 20.390 8.567 20.390 8.567 20.390C8.567 20.390 8.567 23.706 8.567 23.706C7.938 23.871 7.289 23.944 6.640 23.922C3.752 23.922 2.134 22.577 2.134 19.745C2.134 19.745 2.134 8.174 2.134 8.174C2.134 8.174 0.000 8.174 0.000 8.174Z" fill-rule="nonzero" fill="#FFFFFF" />
    <path transform="matrix(1 0 0 1 48.731 0)" layerName="Vector" d="M0.000 3.527C0.000 3.527 0.000 0.000 0.000 0.000C0.000 0.000 3.853 0.000 3.853 0.000C3.853 0.000 3.853 3.527 3.853 3.527C3.853 3.527 0.000 3.527 0.000 3.527ZM0.000 23.634C0.000 23.634 0.000 5.060 0.000 5.060C0.000 5.060 3.853 5.060 3.853 5.060C3.853 5.060 3.853 23.634 3.853 23.634C3.853 23.634 0.000 23.634 0.000 23.634Z" fill-rule="nonzero" fill="#FFFFFF" />
    <path transform="matrix(1 0 0 1 55.41 4.707)" layerName="Vector" d="M7.941 5.498C7.665 4.012 6.977 3.185 5.738 3.185C4.742 3.185 4.054 3.703 4.054 4.668C4.054 7.570 11.276 8.743 11.276 14.265C11.276 17.582 9.007 19.271 5.883 19.271C2.511 19.271 0.587 17.337 0.000 14.094C0.000 14.094 3.372 13.161 3.372 13.161C3.613 14.715 4.164 16.097 5.917 16.097C6.914 16.097 7.643 15.508 7.643 14.473C7.643 11.262 0.421 10.053 0.421 4.980C0.421 2.044 2.690 0.000 5.581 0.000C8.601 0.000 10.636 2.035 11.220 4.937C11.220 4.937 7.941 5.498 7.941 5.498Z" fill-rule="nonzero" fill="#FFFFFF" />
    <path transform="matrix(1 0 0 1 68.201 0.054)" layerName="Vector" d="M0.000 8.174C0.000 8.174 0.000 5.006 0.000 5.006C0.000 5.006 2.131 5.006 2.131 5.006C2.131 5.006 2.131 0.000 2.131 0.000C2.131 0.000 5.984 0.000 5.984 0.000C5.984 0.000 5.984 5.006 5.984 5.006C5.984 5.006 8.573 5.006 8.573 5.006C8.573 5.006 8.573 8.174 8.573 8.174C8.573 8.174 5.984 8.174 5.984 8.174C5.984 8.174 5.984 18.875 5.984 18.875C5.984 19.843 6.396 20.390 7.292 20.390C7.292 20.390 8.565 20.390 8.565 20.390C8.565 20.390 8.565 23.706 8.565 23.706C7.936 23.871 7.287 23.944 6.638 23.922C3.749 23.922 2.131 22.577 2.131 19.745C2.131 19.745 2.131 8.174 2.131 8.174C2.131 8.174 0.000 8.174 0.000 8.174Z" fill-rule="nonzero" fill="#FFFFFF" />
    <path transform="matrix(1 0 0 1 78.58 4.716)" layerName="Vector" d="M0.283 5.799C0.498 2.035 2.871 0.000 6.474 0.000C10.051 0.000 12.083 1.656 12.083 5.039C12.083 5.039 12.083 16.948 12.083 16.948C12.115 17.609 12.195 18.267 12.325 18.916C12.325 18.916 8.642 18.916 8.642 18.916C8.608 18.398 8.470 17.916 8.426 17.465C6.981 18.639 5.777 19.260 3.920 19.260C1.307 19.260 0.000 17.465 0.000 15.083C0.000 11.008 2.682 8.765 8.219 6.660C8.219 6.660 8.219 5.556 8.219 5.556C8.219 4.001 7.600 3.174 6.327 3.174C4.573 3.174 4.196 4.207 4.127 5.796C4.127 5.796 0.283 5.799 0.283 5.799ZM8.228 9.493C4.720 11.495 3.859 12.773 3.859 14.395C3.859 15.605 4.479 16.088 5.648 16.088C6.716 16.088 7.576 15.293 8.237 14.356C8.237 14.356 8.228 9.493 8.228 9.493Z" fill-rule="nonzero" fill="#FFFFFF" />
    <path transform="matrix(1 0 0 1 98.142 0.033)" layerName="Vector" d="M23.023 0.000C23.023 0.000 0.835 0.000 0.835 0.000C0.614 -0.000 0.403 0.088 0.246 0.244C0.090 0.400 0.001 0.612 0.000 0.834C0.000 0.834 0.000 16.012 0.000 16.012C0.040 16.009 0.081 16.009 0.121 16.012C0.121 16.012 3.713 15.941 5.257 15.135C7.160 14.141 8.577 12.089 8.577 12.089C8.938 11.567 9.335 10.991 9.462 10.809C9.589 10.627 9.717 10.445 9.749 10.404C9.781 10.363 9.930 10.151 10.019 10.025C10.107 9.900 10.472 9.376 10.832 8.847C10.832 8.847 12.989 5.712 16.063 4.112C19.390 2.380 23.789 2.568 23.789 2.568C23.789 2.568 23.858 2.568 23.858 2.568C23.858 2.568 23.858 0.834 23.858 0.834C23.857 0.612 23.768 0.400 23.612 0.244C23.455 0.088 23.243 -0.000 23.023 0.000ZM18.492 8.819C16.600 9.811 15.185 11.877 15.185 11.877C15.185 11.877 14.301 13.156 14.301 13.156C14.176 13.336 14.046 13.520 14.014 13.561C13.982 13.602 13.830 13.812 13.744 13.938C13.658 14.064 13.293 14.588 12.931 15.118C12.931 15.118 10.774 18.253 7.697 19.853C4.511 21.516 0.341 21.408 0.000 21.397C0.000 21.397 0.000 23.130 0.000 23.130C0.000 23.352 0.088 23.565 0.245 23.722C0.401 23.879 0.613 23.968 0.835 23.968C0.835 23.968 23.023 23.968 23.023 23.968C23.244 23.968 23.457 23.879 23.613 23.722C23.770 23.565 23.858 23.352 23.858 23.130C23.858 23.130 23.858 7.916 23.858 7.916C23.787 7.932 23.714 7.940 23.642 7.942C23.642 7.942 20.050 8.014 18.503 8.819C18.503 8.819 18.492 8.819 18.492 8.819Z" fill-rule="nonzero" fill="#FFFFFF" />
  </g>
  <g transform="matrix(1 0 0 1 134 6)" layerName="Vector">
    <path d="M6.008 2.909C4.986 2.909 4.195 3.296 3.634 4.069C3.074 4.837 2.794 5.909 2.794 7.286C2.794 10.151 3.865 11.584 6.008 11.584C6.907 11.584 7.996 11.358 9.274 10.907C9.274 10.907 9.274 13.192 9.274 13.192C8.223 13.632 7.050 13.852 5.754 13.852C3.891 13.852 2.467 13.286 1.480 12.155C0.493 11.019 0.000 9.390 0.000 7.269C0.000 5.933 0.242 4.764 0.727 3.762C1.211 2.754 1.906 1.983 2.811 1.450C3.722 0.911 4.788 0.642 6.008 0.642C7.251 0.642 8.501 0.943 9.756 1.547C9.756 1.547 8.880 3.762 8.880 3.762C8.402 3.533 7.920 3.334 7.435 3.164C6.951 2.994 6.475 2.909 6.008 2.909Z" fill-rule="nonzero" fill="#FFFFFF" />
    <path d="M13.925 8.745C13.925 9.718 14.082 10.453 14.398 10.951C14.719 11.449 15.238 11.698 15.956 11.698C16.669 11.698 17.180 11.452 17.489 10.960C17.804 10.462 17.962 9.724 17.962 8.745C17.962 7.772 17.804 7.043 17.489 6.557C17.174 6.070 16.657 5.827 15.939 5.827C15.227 5.827 14.713 6.070 14.398 6.557C14.082 7.037 13.925 7.767 13.925 8.745ZM20.694 8.745C20.694 10.345 20.274 11.596 19.433 12.498C18.592 13.400 17.422 13.852 15.921 13.852C14.981 13.852 14.152 13.646 13.434 13.236C12.716 12.820 12.164 12.226 11.779 11.452C11.394 10.679 11.201 9.776 11.201 8.745C11.201 7.140 11.618 5.892 12.453 5.001C13.288 4.110 14.462 3.665 15.974 3.665C16.914 3.665 17.743 3.870 18.461 4.280C19.179 4.690 19.731 5.279 20.116 6.047C20.502 6.814 20.694 7.714 20.694 8.745Z" fill-rule="nonzero" fill="#FFFFFF" />
    <path d="M31.939 13.676C31.939 13.676 29.268 13.676 29.268 13.676C29.268 13.676 29.268 7.937 29.268 7.937C29.268 7.228 29.143 6.697 28.891 6.346C28.640 5.988 28.240 5.810 27.692 5.810C26.944 5.810 26.404 6.062 26.072 6.565C25.739 7.063 25.572 7.893 25.572 9.053C25.572 9.053 25.572 13.676 25.572 13.676C25.572 13.676 22.901 13.676 22.901 13.676C22.901 13.676 22.901 3.850 22.901 3.850C22.901 3.850 24.942 3.850 24.942 3.850C24.942 3.850 25.301 5.106 25.301 5.106C25.301 5.106 25.450 5.106 25.450 5.106C25.747 4.632 26.156 4.274 26.676 4.034C27.201 3.788 27.797 3.665 28.462 3.665C29.601 3.665 30.465 3.976 31.055 4.597C31.644 5.212 31.939 6.103 31.939 7.269C31.939 7.269 31.939 13.676 31.939 13.676Z" fill-rule="nonzero" fill="#FFFFFF" />
    <path d="M41.520 10.758C41.520 11.766 41.170 12.533 40.469 13.061C39.774 13.588 38.732 13.852 37.343 13.852C36.630 13.852 36.023 13.802 35.521 13.702C35.019 13.608 34.549 13.468 34.111 13.280C34.111 13.280 34.111 11.065 34.111 11.065C34.607 11.300 35.165 11.496 35.784 11.654C36.408 11.813 36.957 11.892 37.430 11.892C38.399 11.892 38.884 11.610 38.884 11.048C38.884 10.837 38.820 10.667 38.691 10.538C38.563 10.403 38.341 10.254 38.026 10.090C37.710 9.920 37.290 9.724 36.765 9.501C36.011 9.185 35.457 8.892 35.101 8.622C34.750 8.353 34.493 8.045 34.330 7.699C34.172 7.348 34.094 6.917 34.094 6.407C34.094 5.534 34.429 4.860 35.101 4.386C35.778 3.905 36.735 3.665 37.973 3.665C39.153 3.665 40.300 3.923 41.415 4.438C41.415 4.438 40.609 6.372 40.609 6.372C40.119 6.161 39.660 5.988 39.234 5.854C38.808 5.719 38.373 5.651 37.929 5.651C37.141 5.651 36.747 5.865 36.747 6.293C36.747 6.533 36.873 6.741 37.124 6.917C37.381 7.093 37.938 7.354 38.796 7.699C39.561 8.010 40.122 8.300 40.478 8.569C40.834 8.839 41.097 9.149 41.266 9.501C41.435 9.853 41.520 10.271 41.520 10.758Z" fill-rule="nonzero" fill="#FFFFFF" />
    <path d="M50.540 13.676C50.540 13.676 50.181 12.419 50.181 12.419C50.181 12.419 50.041 12.419 50.041 12.419C49.755 12.876 49.349 13.230 48.824 13.482C48.298 13.729 47.700 13.852 47.029 13.852C45.878 13.852 45.011 13.544 44.428 12.929C43.844 12.308 43.552 11.417 43.552 10.257C43.552 10.257 43.552 3.850 43.552 3.850C43.552 3.850 46.223 3.850 46.223 3.850C46.223 3.850 46.223 9.589 46.223 9.589C46.223 10.298 46.348 10.831 46.599 11.188C46.851 11.540 47.250 11.716 47.799 11.716C48.547 11.716 49.087 11.467 49.419 10.969C49.752 10.465 49.919 9.633 49.919 8.473C49.919 8.473 49.919 3.850 49.919 3.850C49.919 3.850 52.590 3.850 52.590 3.850C52.590 3.850 52.590 13.676 52.590 13.676C52.590 13.676 50.540 13.676 50.540 13.676Z" fill-rule="nonzero" fill="#FFFFFF" />
    <path d="M64.159 13.676C64.159 13.676 61.487 13.676 61.487 13.676C61.487 13.676 61.487 7.937 61.487 7.937C61.487 7.228 61.368 6.697 61.128 6.346C60.895 5.988 60.524 5.810 60.016 5.810C59.333 5.810 58.837 6.062 58.527 6.565C58.218 7.069 58.063 7.898 58.063 9.053C58.063 9.053 58.063 13.676 58.063 13.676C58.063 13.676 55.392 13.676 55.392 13.676C55.392 13.676 55.392 3.850 55.392 3.850C55.392 3.850 57.433 3.850 57.433 3.850C57.433 3.850 57.792 5.106 57.792 5.106C57.792 5.106 57.941 5.106 57.941 5.106C58.203 4.655 58.583 4.304 59.079 4.052C59.575 3.794 60.145 3.665 60.787 3.665C62.252 3.665 63.245 4.146 63.764 5.106C63.764 5.106 64.001 5.106 64.001 5.106C64.264 4.649 64.649 4.295 65.157 4.043C65.671 3.791 66.249 3.665 66.891 3.665C68.000 3.665 68.838 3.952 69.404 4.526C69.977 5.095 70.263 6.009 70.263 7.269C70.263 7.269 70.263 13.676 70.263 13.676C70.263 13.676 67.583 13.676 67.583 13.676C67.583 13.676 67.583 7.937 67.583 7.937C67.583 7.228 67.463 6.697 67.224 6.346C66.990 5.988 66.619 5.810 66.111 5.810C65.458 5.810 64.967 6.044 64.640 6.513C64.319 6.981 64.159 7.726 64.159 8.745C64.159 8.745 64.159 13.676 64.159 13.676Z" fill-rule="nonzero" fill="#FFFFFF" />
    <path d="M77.067 5.572C76.501 5.572 76.057 5.754 75.736 6.117C75.415 6.475 75.231 6.984 75.184 7.646C75.184 7.646 78.933 7.646 78.933 7.646C78.921 6.984 78.749 6.475 78.416 6.117C78.083 5.754 77.634 5.572 77.067 5.572ZM77.444 13.852C75.868 13.852 74.636 13.415 73.748 12.542C72.861 11.669 72.417 10.433 72.417 8.833C72.417 7.187 72.826 5.915 73.643 5.019C74.466 4.116 75.602 3.665 77.050 3.665C78.434 3.665 79.511 4.061 80.281 4.852C81.052 5.643 81.437 6.735 81.437 8.130C81.437 8.130 81.437 9.431 81.437 9.431C81.437 9.431 75.123 9.431 75.123 9.431C75.152 10.192 75.377 10.787 75.797 11.215C76.218 11.643 76.807 11.856 77.566 11.856C78.156 11.856 78.714 11.795 79.239 11.672C79.765 11.549 80.313 11.353 80.886 11.083C80.886 11.083 80.886 13.157 80.886 13.157C80.419 13.392 79.919 13.564 79.388 13.676C78.857 13.793 78.209 13.852 77.444 13.852Z" fill-rule="nonzero" fill="#FFFFFF" />
    <path d="M89.074 3.665C89.436 3.665 89.737 3.691 89.976 3.744C89.976 3.744 89.775 6.258 89.775 6.258C89.559 6.199 89.296 6.170 88.986 6.170C88.134 6.170 87.468 6.390 86.990 6.829C86.517 7.269 86.280 7.884 86.280 8.675C86.280 8.675 86.280 13.676 86.280 13.676C86.280 13.676 83.609 13.676 83.609 13.676C83.609 13.676 83.609 3.850 83.609 3.850C83.609 3.850 85.632 3.850 85.632 3.850C85.632 3.850 86.026 5.502 86.026 5.502C86.026 5.502 86.158 5.502 86.158 5.502C86.461 4.951 86.870 4.509 87.384 4.175C87.903 3.835 88.467 3.665 89.074 3.665Z" fill-rule="nonzero" fill="#FFFFFF" />
    <path d="M96.825 13.676C96.825 13.676 96.825 0.826 96.825 0.826C96.825 0.826 97.718 0.826 97.718 0.826C97.718 0.826 97.718 13.676 97.718 13.676C97.718 13.676 96.825 13.676 96.825 13.676Z" fill-rule="nonzero" fill="#FFFFFF" />
    <path d="M107.763 13.676C107.763 13.676 107.763 7.479 107.763 7.479C107.763 6.519 107.561 5.821 107.159 5.388C106.756 4.948 106.131 4.729 105.284 4.729C104.146 4.729 103.311 5.019 102.780 5.599C102.254 6.173 101.992 7.107 101.992 8.402C101.992 8.402 101.992 13.676 101.992 13.676C101.992 13.676 101.125 13.676 101.125 13.676C101.125 13.676 101.125 4.122 101.125 4.122C101.125 4.122 101.860 4.122 101.860 4.122C101.860 4.122 102.027 5.432 102.027 5.432C102.027 5.432 102.079 5.432 102.079 5.432C102.698 4.436 103.799 3.938 105.381 3.938C107.541 3.938 108.621 5.101 108.621 7.427C108.621 7.427 108.621 13.676 108.621 13.676C108.621 13.676 107.763 13.676 107.763 13.676Z" fill-rule="nonzero" fill="#FFFFFF" />
    <path d="M117.606 11.188C117.606 12.044 117.282 12.703 116.634 13.166C115.986 13.623 115.067 13.852 113.876 13.852C112.603 13.852 111.593 13.655 110.846 13.263C110.846 13.263 110.846 12.322 110.846 12.322C111.803 12.803 112.813 13.043 113.876 13.043C114.816 13.043 115.528 12.888 116.013 12.577C116.503 12.261 116.748 11.842 116.748 11.320C116.748 10.840 116.553 10.436 116.161 10.107C115.776 9.779 115.140 9.457 114.252 9.141C113.301 8.795 112.632 8.499 112.247 8.253C111.861 8.001 111.570 7.720 111.371 7.409C111.178 7.093 111.082 6.709 111.082 6.258C111.082 5.543 111.380 4.978 111.975 4.562C112.577 4.146 113.414 3.938 114.489 3.938C115.516 3.938 116.491 4.131 117.414 4.518C117.414 4.518 117.090 5.309 117.090 5.309C116.156 4.922 115.289 4.729 114.489 4.729C113.712 4.729 113.096 4.857 112.641 5.115C112.185 5.373 111.958 5.730 111.958 6.188C111.958 6.686 112.133 7.084 112.483 7.383C112.839 7.682 113.531 8.016 114.559 8.385C115.417 8.695 116.042 8.977 116.433 9.229C116.824 9.475 117.116 9.756 117.309 10.072C117.507 10.389 117.606 10.761 117.606 11.188Z" fill-rule="nonzero" fill="#FFFFFF" />
    <path d="M120.926 13.676C120.926 13.676 120.059 13.676 120.059 13.676C120.059 13.676 120.059 4.122 120.059 4.122C120.059 4.122 120.926 4.122 120.926 4.122C120.926 4.122 120.926 13.676 120.926 13.676ZM119.936 1.468C119.936 0.905 120.120 0.624 120.488 0.624C120.669 0.624 120.809 0.697 120.908 0.844C121.013 0.990 121.066 1.198 121.066 1.468C121.066 1.731 121.013 1.939 120.908 2.092C120.809 2.244 120.669 2.320 120.488 2.320C120.120 2.320 119.936 2.036 119.936 1.468Z" fill-rule="nonzero" fill="#FFFFFF" />
    <path d="M131.549 4.122C131.549 4.122 131.549 4.729 131.549 4.729C131.549 4.729 129.578 4.852 129.578 4.852C130.104 5.508 130.366 6.229 130.366 7.014C130.366 7.934 130.060 8.681 129.447 9.255C128.840 9.823 128.022 10.107 126.995 10.107C126.563 10.107 126.259 10.090 126.084 10.055C125.739 10.236 125.477 10.450 125.296 10.696C125.115 10.942 125.024 11.203 125.024 11.479C125.024 11.783 125.138 12.006 125.366 12.146C125.599 12.287 125.988 12.357 126.531 12.357C126.531 12.357 128.194 12.357 128.194 12.357C129.228 12.357 130.019 12.568 130.568 12.990C131.117 13.406 131.391 14.024 131.391 14.845C131.391 15.853 130.982 16.629 130.165 17.174C129.353 17.725 128.194 18.000 126.688 18.000C125.491 18.000 124.563 17.769 123.903 17.306C123.249 16.843 122.922 16.198 122.922 15.372C122.922 14.716 123.124 14.171 123.527 13.737C123.935 13.304 124.487 13.008 125.182 12.850C124.896 12.727 124.665 12.554 124.490 12.331C124.321 12.103 124.236 11.842 124.236 11.549C124.236 10.910 124.642 10.348 125.453 9.861C124.899 9.633 124.467 9.275 124.157 8.789C123.848 8.297 123.693 7.734 123.693 7.102C123.693 6.146 123.994 5.382 124.595 4.808C125.202 4.228 126.020 3.938 127.047 3.938C127.672 3.938 128.157 3.999 128.501 4.122C128.501 4.122 131.549 4.122 131.549 4.122ZM123.842 15.293C123.842 16.605 124.814 17.262 126.758 17.262C129.257 17.262 130.506 16.462 130.506 14.862C130.506 14.288 130.311 13.872 129.920 13.614C129.529 13.356 128.895 13.228 128.019 13.228C128.019 13.228 126.460 13.228 126.460 13.228C124.715 13.228 123.842 13.916 123.842 15.293ZM124.569 7.102C124.569 7.840 124.791 8.414 125.234 8.824C125.684 9.229 126.282 9.431 127.030 9.431C127.824 9.431 128.431 9.229 128.851 8.824C129.277 8.420 129.491 7.834 129.491 7.066C129.491 6.252 129.272 5.643 128.834 5.238C128.402 4.828 127.795 4.623 127.012 4.623C126.253 4.623 125.655 4.843 125.217 5.282C124.785 5.716 124.569 6.322 124.569 7.102Z" fill-rule="nonzero" fill="#FFFFFF" />
    <path d="M140.149 13.676C140.149 13.676 140.149 7.479 140.149 7.479C140.149 6.519 139.947 5.821 139.544 5.388C139.142 4.948 138.517 4.729 137.670 4.729C136.532 4.729 135.697 5.019 135.166 5.599C134.640 6.173 134.377 7.107 134.377 8.402C134.377 8.402 134.377 13.676 134.377 13.676C134.377 13.676 133.510 13.676 133.510 13.676C133.510 13.676 133.510 0.000 133.510 0.000C133.510 0.000 134.377 0.000 134.377 0.000C134.377 0.000 134.377 4.351 134.377 4.351C134.377 4.351 134.334 5.572 134.334 5.572C134.334 5.572 134.395 5.572 134.395 5.572C134.751 4.998 135.201 4.582 135.744 4.324C136.287 4.066 136.961 3.938 137.767 3.938C139.927 3.938 141.007 5.101 141.007 7.427C141.007 7.427 141.007 13.676 141.007 13.676C141.007 13.676 140.149 13.676 140.149 13.676Z" fill-rule="nonzero" fill="#FFFFFF" />
    <path d="M146.603 13.078C147.152 13.078 147.631 13.031 148.039 12.938C148.039 12.938 148.039 13.641 148.039 13.641C147.619 13.781 147.134 13.852 146.586 13.852C145.745 13.852 145.123 13.626 144.720 13.175C144.323 12.724 144.125 12.015 144.125 11.048C144.125 11.048 144.125 4.878 144.125 4.878C144.125 4.878 142.715 4.878 142.715 4.878C142.715 4.878 142.715 4.368 142.715 4.368C142.715 4.368 144.125 3.973 144.125 3.973C144.125 3.973 144.563 1.811 144.563 1.811C144.563 1.811 145.009 1.811 145.009 1.811C145.009 1.811 145.009 4.122 145.009 4.122C145.009 4.122 147.803 4.122 147.803 4.122C147.803 4.122 147.803 4.878 147.803 4.878C147.803 4.878 145.009 4.878 145.009 4.878C145.009 4.878 145.009 10.925 145.009 10.925C145.009 11.657 145.138 12.199 145.394 12.551C145.651 12.902 146.054 13.078 146.603 13.078Z" fill-rule="nonzero" fill="#FFFFFF" />
    <path d="M156.000 11.188C156.000 12.044 155.676 12.703 155.028 13.166C154.380 13.623 153.460 13.852 152.269 13.852C150.996 13.852 149.986 13.655 149.239 13.263C149.239 13.263 149.239 12.322 149.239 12.322C150.197 12.803 151.207 13.043 152.269 13.043C153.209 13.043 153.922 12.888 154.406 12.577C154.897 12.261 155.142 11.842 155.142 11.320C155.142 10.840 154.946 10.436 154.555 10.107C154.170 9.779 153.533 9.457 152.646 9.141C151.694 8.795 151.026 8.499 150.640 8.253C150.255 8.001 149.963 7.720 149.765 7.409C149.572 7.093 149.476 6.709 149.476 6.258C149.476 5.543 149.773 4.978 150.369 4.562C150.970 4.146 151.808 3.938 152.882 3.938C153.910 3.938 154.885 4.131 155.807 4.518C155.807 4.518 155.483 5.309 155.483 5.309C154.549 4.922 153.682 4.729 152.882 4.729C152.106 4.729 151.490 4.857 151.034 5.115C150.579 5.373 150.351 5.730 150.351 6.188C150.351 6.686 150.526 7.084 150.877 7.383C151.233 7.682 151.925 8.016 152.952 8.385C153.811 8.695 154.435 8.977 154.826 9.229C155.218 9.475 155.510 9.756 155.702 10.072C155.901 10.389 156.000 10.761 156.000 11.188Z" fill-rule="nonzero" fill="#FFFFFF" />
  </g>
</svg>
